# xmcd
#
# Track frame offsets:
#	150
#	13707
#	27225
#	43685
#	59062
#	72650
#	86545
#	97907
#	114860
#	129557
#	141415
#	154117
#	170865
#	186462
#	202397
#	221432
#	235427
#	246342
#	262472
#	279355
#	290842
#
# Disc length: 4074 seconds
# Revision: 0
# Processed by: cddbd v1.5.2PL0 Copyright (c) Steve Scherf et al.
# Submitted via: dBpowerAMP V12.0
#
DISCID=5a0fe815
DTITLE=Various Artist - Sony Tree Publishing: 20 Years:1972-1992
DYEAR=1992
DGENRE=Country
TTITLE0=Faron Young - It's Four In The Morning
TTITLE1=Conway Twitty - You've Never Been This Far Before
TTITLE2=Cal Smith - Country Bumpkins
TTITLE3=B. J. Thomas - (Hey, Won't You Play) Another Somebody Done Somebody Wrong Song
TTITLE4=George Jones and Tammy Wynette - Golden Ring
TTITLE5=Loretta Lynn - She's Got You
TTITLE6=Waylon Jennings and Willie Nelson - Mamma's, Don't Let Your Babies Grow Up To Be Cowboys
TTITLE7=T. G. Sheppard - Last Cheater's Waltz
TTITLE8=George Jones - He Stopped Loving Her Today
TTITLE9=Ronnie McDowell - Older Women
TTITLE10=Michael Martin Murphy - What's Forever For
TTITLE11=Lee Greenwood - Somebody's Gonna Love You
TTITLE12=The Judds - Why Not Me
TTITLE13=Reba McEntire - Somebody Should Leave
TTITLE14=The Judds - Grandpa (Tell Me 'Bout The Good Old Days)
TTITLE15=George Strait - Ocean Front Property
TTITLE16=Vern Gosdin - Set'em Up Joe
TTITLE17=Keith Whitley - I'm No Stranger To The Rain
TTITLE18=Kathy Mattea - Where've You Been
TTITLE19=Travis Tritt - Here's A Quarter (Call Someone Who Cares)
TTITLE20=Brooks and Dunn - Boot Scootin' Boogie
EXTD=
EXTT0=
EXTT1=
EXTT2=
EXTT3=
EXTT4=
EXTT5=
EXTT6=
EXTT7=
EXTT8=
EXTT9=
EXTT10=
EXTT11=
EXTT12=
EXTT13=
EXTT14=
EXTT15=
EXTT16=
EXTT17=
EXTT18=
EXTT19=
EXTT20=
PLAYORDER=
